<?xml version="1.0" encoding="UTF-8" standalone="no"?>
<svg width="346px" height="79px" viewBox="0 0 346 79" version="1.1" xmlns="http://www.w3.org/2000/svg" xmlns:xlink="http://www.w3.org/1999/xlink">
    <!-- Generator: Sketch 42 (36781) - http://www.bohemiancoding.com/sketch -->
    <title>Logo.WebUI</title>
    <desc>Created with Sketch.</desc>
    <defs></defs>
    <g id="Page-1" stroke="none" stroke-width="1" fill="none" fill-rule="evenodd">
        <g id="Desktop" transform="translate(-390.000000, -290.000000)">
            <g id="Logo.WebUI" transform="translate(390.000000, 290.000000)">
                <path d="M161.910156,52.234375 L171.097656,7.28125 L181.392578,7.28125 L167.611328,67 L157.685547,67 L146.324219,23.4003906 L134.716797,67 L124.75,67 L110.96875,7.28125 L121.263672,7.28125 L130.533203,52.1523438 L141.935547,7.28125 L150.630859,7.28125 L161.910156,52.234375 Z M206.289062,67.8203125 C199.972625,67.8203125 194.852559,65.8310746 190.928711,61.8525391 C187.004863,57.8740035 185.042969,52.576205 185.042969,45.9589844 L185.042969,44.7285156 C185.042969,40.298806 185.897452,36.3408377 187.606445,32.8544922 C189.315438,29.3681466 191.714828,26.6543066 194.804688,24.7128906 C197.894547,22.7714747 201.339825,21.8007812 205.140625,21.8007812 C211.183624,21.8007812 215.852523,23.7284963 219.147461,27.5839844 C222.442399,31.4394724 224.089844,36.894496 224.089844,43.9492188 L224.089844,47.96875 L195.091797,47.96875 C195.39258,51.6328308 196.6162,54.5312393 198.762695,56.6640625 C200.90919,58.7968857 203.609359,59.8632812 206.863281,59.8632812 C211.42971,59.8632812 215.148423,58.0175966 218.019531,54.3261719 L223.392578,59.453125 C221.615225,62.105482 219.243179,64.1630786 216.276367,65.6259766 C213.309555,67.0888745 209.980487,67.8203125 206.289062,67.8203125 Z M205.099609,29.7988281 C202.365221,29.7988281 200.157235,30.7558498 198.475586,32.6699219 C196.793937,34.5839939 195.720705,37.2499829 195.255859,40.6679688 L214.246094,40.6679688 L214.246094,39.9296875 C214.027343,36.5937333 213.13868,34.0712976 211.580078,32.3623047 C210.021477,30.6533118 207.861342,29.7988281 205.099609,29.7988281 Z M270.765625,45.2617188 C270.765625,52.1523782 269.227554,57.6347453 266.151367,61.7089844 C263.07518,65.7832235 258.843777,67.8203125 253.457031,67.8203125 C248.261693,67.8203125 244.214858,65.9472844 241.316406,62.2011719 L240.824219,67 L231.800781,67 L231.800781,4 L241.767578,4 L241.767578,26.8867188 C244.638686,23.4960768 248.507788,21.8007812 253.375,21.8007812 C258.78909,21.8007812 263.041,23.8105268 266.130859,27.8300781 C269.220719,31.8496295 270.765625,37.4687139 270.765625,44.6875 L270.765625,45.2617188 Z M260.798828,44.4003906 C260.798828,39.5878666 259.95118,35.9785277 258.255859,33.5722656 C256.560538,31.1660036 254.099626,29.9628906 250.873047,29.9628906 C246.552713,29.9628906 243.517587,31.8495905 241.767578,35.6230469 L241.767578,53.9160156 C243.544931,57.7715037 246.6074,59.6992188 250.955078,59.6992188 C254.072281,59.6992188 256.478507,58.537121 258.173828,56.2128906 C259.869149,53.8886603 260.74414,50.3750235 260.798828,45.671875 L260.798828,44.4003906 Z M323.757812,7.28125 L323.757812,47.1894531 C323.757812,53.5332348 321.727559,58.5575987 317.666992,62.2626953 C313.606425,65.967792 308.199253,67.8203125 301.445312,67.8203125 C294.609341,67.8203125 289.181661,65.9951354 285.162109,62.3447266 C281.142558,58.6943177 279.132812,53.6289387 279.132812,47.1484375 L279.132812,7.28125 L289.46875,7.28125 L289.46875,47.2304688 C289.46875,51.2226762 290.480459,54.2714738 292.503906,56.3769531 C294.527354,58.4824324 297.507793,59.5351562 301.445312,59.5351562 C309.429727,59.5351562 313.421875,55.3242609 313.421875,46.9023438 L313.421875,7.28125 L323.757812,7.28125 Z M345.783203,67 L335.447266,67 L335.447266,7.28125 L345.783203,7.28125 L345.783203,67 Z" id="WebUI" fill="#FFFFFF"></path>
                <g id="Logo" fill-rule="nonzero">
                    <path d="M102.274899,59.6305804 C103.271168,60.6608304 103.769295,61.9519685 103.769295,63.5040335 C103.769295,65.0293388 103.271168,66.2937176 102.274899,67.2972079 C101.278629,68.3006982 99.8650255,68.8024358 98.0340444,68.8024358 C96.2838418,68.8024358 94.8971637,68.307388 93.8739683,67.3172776 C92.8507729,66.3271671 92.3391829,65.0560985 92.3391829,63.5040335 C92.3391829,61.9519685 92.8373101,60.6608304 93.8335792,59.6305804 C94.8298484,58.6003303 96.2299894,58.085213 98.0340444,58.085213 C99.8650255,58.085213 101.278629,58.6003303 102.274899,59.6305804 Z" id="." fill="#B06CAC"></path>
                    <path d="M50.6667008,24.3139919 C56.1795911,28.6352562 60.58724,37.5519434 62.7977226,42.4215251 C64.7285658,46.8863963 68.0309735,55.1242142 68.1241866,61.7431899 C71.8393952,63.9103496 75.8475594,64.7197707 79.975569,63.0487078 C88.7908669,59.0016024 86.633649,50.07186 86.633649,50.07186 C85.0395892,44.9396331 81.3462183,40.6852119 76.4334704,38.3221989 C84.8359674,33.1915136 85.1156068,24.2748264 85.6615693,21.1676938 C85.9545248,18.0997268 82.5056394,-8.83310736 66.246608,3.50403673 C59.1270865,8.83413407 53.719301,16.0572691 50.6667008,24.3139919 Z M75.3415453,24.0398332 C73.2775405,28.6352562 69.0030531,31.3376782 66.0202333,29.9799396 C63.0374135,28.622201 62.1585469,23.7656744 64.3690295,19.1702514 C66.579512,14.5748285 70.7075216,11.8724064 73.6903415,13.230145 C76.6731613,14.5878836 77.4055501,19.4444102 75.3415453,24.0398332 L75.3415453,24.0398332 Z" id="Shape" fill="#F37047"></path>
                    <path d="M42.2642039,51.2207157 C40.0670375,46.1944718 36.285248,36.7425223 37.030953,29.718836 C28.5390381,26.5707489 19.3370426,25.7317357 10.398633,27.2905727 C-10.6808483,30.9329677 7.36254848,51.6123711 9.985832,53.2312133 C12.6091155,54.8500555 19.9063712,60.8032171 29.6937488,58.100795 C27.9100755,63.2244121 28.5138845,68.8577238 31.3449527,73.5059062 C34.6847537,78.0201536 40.7776974,79.649298 45.9927287,77.4224598 C49.7852978,75.7517465 52.5121673,72.3770939 53.3033005,68.3752208 C48.269792,63.8972945 44.274944,55.7900283 42.2642039,51.2207157 L42.2642039,51.2207157 Z M30.8256224,45.1239472 C29.7203811,48.2310797 24.8999312,49.3146596 19.9330035,47.7349829 C14.9660758,46.1553063 12.0897853,42.0820905 13.1950266,39.0402338 C14.3002678,35.9983771 19.1207178,34.8495213 24.0876454,36.429198 C29.0545731,38.0088746 31.9308637,42.0168146 30.8256224,45.1239472 L30.8256224,45.1239472 Z" id="Shape" fill="#46B2E6"></path>
                    <ellipse id="Oval" fill="#67BC6B" transform="translate(37.737142, 13.896054) rotate(-23.530000) translate(-37.737142, -13.896054) " cx="37.7371424" cy="13.8960541" rx="9.7873776" ry="9.59555651"></ellipse>
                    <ellipse id="Oval" fill="#FFCC2A" transform="translate(52.490446, 46.869562) rotate(-23.530000) translate(-52.490446, -46.869562) " cx="52.490446" cy="46.8695621" rx="5.7925296" ry="21.3452176"></ellipse>
                </g>
            </g>
        </g>
    </g>
</svg>