<?xml version="1.0" encoding="UTF-8" standalone="no"?>
<svg width="29px" height="22px" viewBox="0 0 29 22" version="1.1" xmlns="http://www.w3.org/2000/svg" xmlns:xlink="http://www.w3.org/1999/xlink">
    <!-- Generator: sketchtool 39.1 (31720) - http://www.bohemiancoding.com/sketch -->
    <title>430113FF-2BDB-4C0B-8D21-40D383DDA17A</title>
    <desc>Created with sketchtool.</desc>
    <defs></defs>
    <g id="Page-1" stroke="none" stroke-width="1" fill="none" fill-rule="evenodd">
        <g id="Desktop" transform="translate(-32.000000, -20.000000)" fill="#FFFFFF">
            <g id="Header">
                <g id="Logo" transform="translate(32.000000, 20.000000)">
                    <path d="M28.3024877,16.3984096 C28.5781848,16.6817284 28.7160313,17.0367913 28.7160313,17.4636092 C28.7160313,17.8830682 28.5781848,18.2307723 28.3024877,18.5067322 C28.0267906,18.782692 27.6356046,18.9206698 27.1289179,18.9206698 C26.6445852,18.9206698 26.2608503,18.7845317 25.9777019,18.5122513 C25.6945535,18.239971 25.5529814,17.8904271 25.5529814,17.4636092 C25.5529814,17.0367913 25.6908279,16.6817284 25.9665251,16.3984096 C26.2422222,16.1150908 26.6296826,15.9734336 27.1289179,15.9734336 C27.6356046,15.9734336 28.0267906,16.1150908 28.3024877,16.3984096 Z" id="."></path>
                    <path d="M14.0209738,6.68634779 C15.5465535,7.87469545 16.7662803,10.3267844 17.3779861,11.6659194 C17.9123075,12.893759 18.8261813,15.1591589 18.8519762,16.9793772 C19.8800842,17.5753462 20.9892617,17.797937 22.131604,17.3383947 C24.5710575,16.2254407 23.9740915,13.7697615 23.9740915,13.7697615 C23.5329681,12.3583991 22.5109032,11.1884333 21.1514006,10.5386047 C23.4766199,9.12766625 23.5540044,6.67557726 23.7050884,5.8211158 C23.7861578,4.97742486 22.8317493,-2.42910452 18.3323947,0.963610101 C16.3622126,2.42938687 14.8657185,4.41574901 14.0209738,6.68634779 Z M20.8492327,6.61095413 C20.2780615,7.87469545 19.0951845,8.61786151 18.2697501,8.24448339 C17.4443157,7.87110527 17.2011073,6.53556047 17.8128132,5.27181915 C18.4245191,4.00807783 19.5668613,3.26491177 20.3922958,3.63828988 C21.2177302,4.011668 21.4204038,5.34721281 20.8492327,6.61095413 L20.8492327,6.61095413 Z" id="Shape"></path>
                    <path d="M11.6957545,14.0856968 C11.0877336,12.7034798 10.0412007,10.1041936 10.2475593,8.17267991 C7.89759545,7.30695595 5.35113127,7.07622732 2.87760912,7.5049075 C-2.95570645,8.50656611 2.0374348,14.1934021 2.76337489,14.6385837 C3.48931499,15.0837653 5.50868134,16.7208847 8.21713804,15.9777186 C7.72354289,17.3867133 7.89063471,18.935874 8.67407495,20.2141242 C9.59829661,21.4555422 11.2843943,21.9035569 12.7275476,21.2911765 C13.7770635,20.8317303 14.5316689,19.9037008 14.7505989,18.8031857 C13.3576783,17.571756 12.2521858,15.3422578 11.6957545,14.0856968 L11.6957545,14.0856968 Z M8.53036092,12.4090855 C8.22450799,13.2635469 6.890547,13.5615314 5.51605129,13.1271203 C4.14155558,12.6927092 3.34560096,11.5725749 3.65145389,10.7360643 C3.95730683,9.8995537 5.29126781,9.58361837 6.66576352,10.0180294 C8.04025923,10.4524405 8.83621385,11.554624 8.53036092,12.4090855 L8.53036092,12.4090855 Z" id="Shape"></path>
                    <ellipse id="Oval" transform="translate(10.442983, 3.821415) rotate(-23.530000) translate(-10.442983, -3.821415) " cx="10.4429828" cy="3.8214149" rx="2.7084567" ry="2.63877804"></ellipse>
                    <ellipse id="Oval" transform="translate(14.525658, 12.889130) rotate(-23.530000) translate(-14.525658, -12.889130) " cx="14.525658" cy="12.8891296" rx="1.60296417" ry="5.86993483"></ellipse>
                </g>
            </g>
        </g>
    </g>
</svg>